:SAMPLES-PER-SECOND 30
:FULLY-SPECIFIED
:DEGREES
758
root  12.6942 39.955 10.3753 9.36725 73.8542 12.7334
RightUpLeg  -8.74467 -8.78484 -13.7619
RightLeg  16.5824 -0.848108 -0.606924
RightFoot  -1.24088 -0.532982 5.92612
RightToes  0.000481921 0.542163 -0.142578
Spine  13.6544 -1.04373 4.87402
Spine1  9.1429 -0.749222 0.379451
HEad  14.7847 7.99537 -4.38779
LeftShoulder1  6.89405 -13.8486 -33.6845
LeftArm  -16.2529 -7.49269 -44.9639
LeftForeArm  -164.249 -54.2496 -167.998
LeftHand  -0.25398 0.0180481 5.50724
RightShoulder  3.6778 9.44058 22.1456
RightArm  7.24247 45.2472 68.4259
RightForeArm  157.184 70.6615 150.661
RightHand  -1.26443 5.01646 -14.4038
LeftUpLeg  0.160201 27.4834 4.83926
LeftLeg  16.857 12.5723 2.47664
LeftFoot  -6.80456 0.243996 -5.12911
LeftToes  1.06245e-005 4.65869e-005 -8.65517e-006
759
root  12.4841 39.6923 10.5275 13.6056 76.6777 17.7503
RightUpLeg  -9.56731 -10.0247 -14.6105
RightLeg  21.0816 -2.17231 -1.13009
RightFoot  -3.2014 -0.438632 5.8477
RightToes  0.000481921 0.542163 -0.142578
Spine  15.2688 -1.10732 4.44303
Spine1  8.07031 -0.754038 0.277112
HEad  13.1265 6.06827 -5.23987
LeftShoulder1  6.6841 -14.1288 -31.8624
LeftArm  -12.9014 -12.6389 -45.1961
LeftForeArm  -159.294 -54.2713 -168.327
LeftHand  -0.25398 0.0180481 5.50724
RightShoulder  3.41179 9.37975 20.0884
RightArm  7.46929 48.3388 69.5144
RightForeArm  156.06 71.5249 149.097
RightHand  -1.23356 4.88427 -14.2335
LeftUpLeg  -1.36895 30.3668 4.47751
LeftLeg  19.7228 6.66134 2.91576
LeftFoot  -7.93281 0.198372 -5.06293
LeftToes  1.06245e-005 4.65869e-005 -8.65517e-006
760
root  12.2374 39.3472 10.7171 17.4302 79.7319 22.9663
RightUpLeg  -9.64864 -11.6007 -14.978
RightLeg  25.6128 -3.17064 -1.87824
RightFoot  -5.17271 -0.343558 5.71942
RightToes  0.000481921 0.542163 -0.142578
Spine  17.3872 -1.32062 3.91701
Spine1  7.87258 -1.1015 0.873077
HEad  10.8636 4.65025 -6.22104
LeftShoulder1  6.35091 -14.1954 -29.8185
LeftArm  -11.1642 -18.5078 -46.1552
LeftForeArm  -159.785 -54.1491 -168.346
LeftHand  -0.25398 0.0180481 5.50724
RightShoulder  3.27121 9.5167 18.6262
RightArm  7.51454 50.6037 70.2702
RightForeArm  156.865 71.578 149.121
RightHand  -1.15172 4.55487 -13.736
LeftUpLeg  -2.70925 28.0785 4.89764
LeftLeg  23.699 5.55676 3.02827
LeftFoot  -9.38889 0.139762 -4.89188
LeftToes  1.06245e-005 4.65869e-005 -8.65517e-006
761
root  12.065 39.0543 10.962 23.0818 82.5941 30.0526
RightUpLeg  -8.84907 -13.1599 -15.1833
RightLeg  28.8036 -3.86838 -2.53225
RightFoot  -6.91057 -0.26993 5.7617
RightToes  0.000481921 0.542163 -0.142578
Spine  18.537 -1.42958 3.60046
Spine1  8.87822 -1.28881 1.19283
HEad  9.46723 3.1567 -6.24424
LeftShoulder1  6.10147 -14.1654 -28.441
LeftArm  -10.0617 -24.1962 -47.8103
LeftForeArm  -162.845 -54.8496 -167.824
LeftHand  -0.25398 0.0180481 5.50724
RightShoulder  3.43071 9.86712 19.195
RightArm  7.03565 50.9148 69.6064
RightForeArm  159.956 70.8099 150.818
RightHand  -1.07887 4.42553 -13.0599
LeftUpLeg  -3.41942 25.6539 5.67886
LeftLeg  26.7622 4.75001 2.94476
LeftFoot  -10.3989 0.101072 -4.73662
LeftToes  1.06245e-005 4.65869e-005 -8.65517e-006
762
root  12.0362 38.9539 11.2654 35.142 84.8462 42.7455
RightUpLeg  -7.7818 -14.7144 -15.2807
RightLeg  29.9853 -4.40957 -2.9825
RightFoot  -7.99907 -0.226395 5.8839
RightToes  0.000481921 0.542163 -0.142578
Spine  18.148 -1.32696 3.18059
Spine1  10.2417 -1.25008 1.21591
HEad  9.64893 2.0265 -5.39621
LeftShoulder1  5.96747 -13.947 -28.098
LeftArm  -8.72679 -27.9607 -49.6807
LeftForeArm  -161.969 -55.8301 -167.432
LeftHand  -0.25398 0.0180481 5.50724
RightShoulder  3.83482 10.2565 21.5666
RightArm  6.59975 47.792 68.5264
RightForeArm  164.882 69.2952 153.646
RightHand  -1.00823 4.45894 -12.1886
LeftUpLeg  -3.70427 23.5876 6.11253
LeftLeg  27.5705 4.08747 2.66101
LeftFoot  -10.4347 0.100807 -4.827
LeftToes  1.06245e-005 4.65869e-005 -8.65517e-006
